<svg xmlns="http://www.w3.org/2000/svg" viewBox="0 0 64 64">
  <defs>
    <linearGradient id="g" x1="0" y1="0" x2="1" y2="1">
      <stop offset="0" stop-color="#fde68a"/>
      <stop offset="0.5" stop-color="#e9b425"/>
      <stop offset="1" stop-color="#9a6a10"/>
    </linearGradient>
  </defs>
  <rect width="64" height="64" rx="14" fill="#0a0a0a"/>
  <g transform="rotate(-26 36 26)">
    <rect x="16" y="16" width="34" height="16" rx="2.5" fill="url(#g)"/>
    <g fill="#0a0a0a">
      <rect x="19" y="19" width="3.4" height="3.4" rx="0.6"/>
      <rect x="26" y="19" width="3.4" height="3.4" rx="0.6"/>
      <rect x="33" y="19" width="3.4" height="3.4" rx="0.6"/>
      <rect x="40" y="19" width="3.4" height="3.4" rx="0.6"/>
      <rect x="19" y="25.5" width="3.4" height="3.4" rx="0.6"/>
      <rect x="26" y="25.5" width="3.4" height="3.4" rx="0.6"/>
      <rect x="33" y="25.5" width="3.4" height="3.4" rx="0.6"/>
      <rect x="40" y="25.5" width="3.4" height="3.4" rx="0.6"/>
    </g>
  </g>
  <g transform="rotate(62 38 40)">
    <rect x="26" y="33" width="26" height="14" rx="2.5" fill="url(#g)"/>
    <g fill="#0a0a0a">
      <rect x="29" y="35.6" width="3" height="3" rx="0.6"/>
      <rect x="35" y="35.6" width="3" height="3" rx="0.6"/>
      <rect x="41" y="35.6" width="3" height="3" rx="0.6"/>
      <rect x="29" y="40.4" width="3" height="3" rx="0.6"/>
      <rect x="35" y="40.4" width="3" height="3" rx="0.6"/>
      <rect x="41" y="40.4" width="3" height="3" rx="0.6"/>
    </g>
  </g>
</svg>
